<?xml version="1.0" encoding="UTF-8"?><svg id="Layer_1" xmlns="http://www.w3.org/2000/svg" viewBox="0 0 308.11 334"><defs><style>.cls-1{fill:#685c4e;}</style></defs><path class="cls-1" d="M199.76,0c4.33,2.59,4.56,7.78-.47,9.64-11.75,1.08-24.83-.96-36.41.11-8.22.76-6.47,10.79,1.31,10.49,28.94-1.62,60.06,2.07,88.75,0,2.83-.2,5.91-.27,7.32-3.13,2-4.06-1.46-7.01-5.36-7.36-11.39-1.03-24.21.95-35.76-.11-5.03-1.86-4.79-7.05-.47-9.64h40.43c12.06,3.81,15.86,18.74,5.54,26.74-1.71,1.33-4.14,1.48-4.96,3.52l-9.56,48.26c11.87,12.11,24.29,23.36,29.65,40.05,4.46,13.88,4.42,30.96,1.96,45.28-.65,3.78-1.24,11.94-6.05,12.25-9.44.62-2.19-16.29-2.89-20.87h-127.17c-.37,3.63,4.23,27.29,5.86,28.38,17.03,4.02,35.41,5.53,52.31,9.64,13.07,3.18,19.91,10.71,20.08,24.6l29.99-4.25c5.33-4.06,8.64-22.63,13.11-25.39,2.44-1.5,6.36-.17,6.99,2.72,1.03,4.76-5.78,15.36-7.04,20.39.95.85,17.6-2.63,20.54-2.66,19.58-.22,27.24,23.39,9.38,32.92-10.08,5.38-32.09,12.99-43.46,16.54-1.51.47-3.35,1.48-4.9,1.34-4.93-.45-6.11-7.01-1.73-9.26,13.73-6.35,30.1-10,43.63-16.37,9.16-4.32,9.25-12.04-.48-15.16l-68.93,9.67c-8.05,7.47-13.09,10.79-24.75,9.66-16.98-1.65-35.56-7.83-52.73-9.88-5.91-1.85-4.53-9.78,1.75-9.63,17.17,2.35,35.24,7.92,52.34,9.69,19.31,2.01,22.23-20.64,5.56-25.15-18.85-2.19-38.61-8.53-57.29-10.54-12.46-1.34-21.42,1.55-32.65,6.33-35.81,15.25-70.65,35.24-106.5,50.67-6.42,2.2-9.32-5.99-3.72-8.94,34.33-15.4,67.6-33.41,101.95-48.7,11.22-5,22.79-10.21,35.45-9.23-5.2-22.95-9.4-48.45.74-70.67,6.18-13.55,16.99-22.84,27.04-33.33l-9.66-48.81c-.79-1.54-3.31-1.9-4.75-3.08-10.59-8.63-6.7-22.57,5.54-26.74h40.43ZM249.98,30h-81.52l9.53,45.7,62.83-.07,9.16-45.62ZM263.02,108.27c-1.25-3.55-4.6-7.25-7.16-10.13-1.88-2.11-11.26-11.73-13.09-12.35l-67.33-.22c-7.4,7.06-15.17,13.98-20.68,22.7h108.26ZM273.45,145.45v-10.76l-4.54-16.33-118.39-.3c-1.53.09-1.61,1.35-2.13,2.44-1.03,2.17-3.41,11.35-3.41,13.55v11.41h128.47Z"/><path class="cls-1" d="M231.52,265.91l-48.36,18.49c-27.56,9.31-55.36-10.65-81.85-16.03-10.02-2.04-14.09.53-21.84,6.25-24.56,18.12-47.43,40.13-71.98,58.45-4.33,2.9-9.13-1.52-6.94-6.29.55-1.21,5.72-5.28,7.17-6.52,20.55-17.52,44.29-37.49,65.87-53.48,9.49-7.03,16.86-10.6,29.04-8.21,19.81,3.88,52.22,21.8,71.08,18.34,16.9-3.1,36.18-14.84,53.18-19.23,4.78-1.3,8.26,4.93,4.62,8.23Z"/><path class="cls-1" d="M83.67,108.92c6.15-13.33,17.9-23.14,29.99-30.98-12.06-7.87-23.99-17.5-29.99-30.98-8.2,12.6-18.12,23.42-31.28,30.98,3.24,2.6,10.92,5.3,10.41,10.37-.23,2.31-3.21,4.51-5.38,4.19-2.16-.31-9.42-6-12.88-7.38-2.1-.84-4.3-1.41-6.47-2-3.1-.84-7.9.07-7.9-5.18,0-5.66,6.67-4.68,10.61-5.73,13.9-3.74,32.98-23.12,36.74-36.96.98-3.62.53-12.86,7.29-9.98,4.13,1.76,2.88,6.11,3.73,9.33,3.79,14.47,22.55,33.41,36.89,37.46,4.02,1.14,10.51.35,10.5,5.88s-5.94,4.68-9.99,5.73c-13.97,3.62-34.14,23.45-37.4,37.61-.78,3.38.59,7.47-3.73,9.33-6.94,2.99-6.7-7.99-7.99-11.89-.85-2.55-2.75-5.88-4.1-8.3-1.22-2.19-4.07-4.36-4.08-7.05,0-1.47,1.33-3.95,2.65-4.55,6.32-2.86,8.75,7,12.38,10.09Z"/><path class="cls-1" d="M281.11,263.61c5.65-1.03,5.74,7.1,7.87,10.79,1.76,3.06,7.66,8.65,10.95,9.92,3.03,1.17,7.74.48,8.15,4.95.59,6.41-5.23,5.11-9.63,7.39-3.44,1.78-8.99,7.45-10.57,10.95-1.57,3.48-.64,8.58-5.63,8.78-5.93.24-4.57-4.7-6.04-8.33-1.54-3.81-7.89-10.09-11.63-11.85-3.6-1.69-9.1-.88-9.09-6.28,0-4.96,6.34-4.57,9.69-6.33s9.62-8.2,11.04-11.79c1.11-2.82.68-7.43,4.9-8.2ZM290.41,290.89c.82-1.17-2.81-3.08-3.6-3.89-1.64-1.68-3.02-3.5-4.62-5.2l-8.72,8.14,6.87,6.82.95,1.96,1.35-.41c1.87-2.76,4.76-6.11,7.77-7.42Z"/><path class="cls-1" d="M188.5,126.69c4.63-.83,18.54-.76,14.38,7.19-1.68,3.2-13.38,3.25-16.15,2.1-4.16-1.73-3.5-8.34,1.77-9.29Z"/><path class="cls-1" d="M232.84,128.02c2.24,2.25,1.59,7.23-1.58,8.16-1.37.4-11.3.42-12.89.12-4.65-.88-4.81-8.62.79-9.61,2.81-.5,11.71-.66,13.69,1.33Z"/><path class="cls-1" d="M157.18,126.67c4.97-1.12,18.66-.98,14.7,7.54-1.35,2.91-13.8,2.78-16.31,1.63-3.56-1.63-2.81-8.17,1.61-9.16Z"/><path class="cls-1" d="M249.79,126.67c4.97-1.12,18.66-.98,14.7,7.54-1.35,2.91-13.8,2.78-16.31,1.63-3.56-1.63-2.81-8.17,1.61-9.16Z"/></svg>